{
	"asset":{
		"generator":"Khronos glTF Blender I/O v4.0.44",
		"version":"2.0"
	},
	"extensionsUsed":[
		"EXT_texture_webp"
	],
	"scene":0,
	"scenes":[
		{
			"name":"Scene",
			"nodes":[
				0
			]
		}
	],
	"nodes":[
		{
			"mesh":0,
			"name":"Sphere"
		}
	],
	"materials":[
		{
			"doubleSided":true,
			"name":"moon",
			"pbrMetallicRoughness":{
				"baseColorTexture":{
					"index":0
				},
				"metallicFactor":0,
				"roughnessFactor":0.5
			}
		}
	],
	"meshes":[
		{
			"name":"Sphere",
			"primitives":[
				{
					"attributes":{
						"POSITION":0,
						"NORMAL":1,
						"TEXCOORD_0":2
					},
					"indices":3,
					"material":0
				}
			]
		}
	],
	"textures":[
		{
			"extensions":{
				"EXT_texture_webp":{
					"source":0
				}
			},
			"sampler":0,
			"source":1
		}
	],
	"images":[
		{
			"mimeType":"image/webp",
			"name":"8k_moon_day_map",
			"uri":"Textures/8k_moon_day_map.webp"
		},
		{
			"mimeType":"image/png",
			"name":"8k_moon_day_map",
			"uri":"Textures/8k_moon_day_map.png"
		}
	],
	"accessors":[
		{
			"bufferView":0,
			"componentType":5126,
			"count":1984,
			"max":[
				0.9999997019767761,
				1,
				0.9999993443489075
			],
			"min":[
				-0.9999990463256836,
				-1,
				-1
			],
			"type":"VEC3"
		},
		{
			"bufferView":1,
			"componentType":5126,
			"count":1984,
			"type":"VEC3"
		},
		{
			"bufferView":2,
			"componentType":5126,
			"count":1984,
			"type":"VEC2"
		},
		{
			"bufferView":3,
			"componentType":5123,
			"count":2880,
			"type":"SCALAR"
		}
	],
	"bufferViews":[
		{
			"buffer":0,
			"byteLength":23808,
			"byteOffset":0,
			"target":34962
		},
		{
			"buffer":0,
			"byteLength":23808,
			"byteOffset":23808,
			"target":34962
		},
		{
			"buffer":0,
			"byteLength":15872,
			"byteOffset":47616,
			"target":34962
		},
		{
			"buffer":0,
			"byteLength":5760,
			"byteOffset":63488,
			"target":34963
		}
	],
	"samplers":[
		{
			"magFilter":9729,
			"minFilter":9987
		}
	],
	"buffers":[
		{
			"byteLength":69248,
			"uri":"moon.bin"
		}
	]
}
