{
	"asset":{
		"generator":"Khronos glTF Blender I/O v4.0.44",
		"version":"2.0"
	},
	"extensionsUsed":[
		"KHR_materials_emissive_strength"
	],
	"scene":0,
	"scenes":[
		{
			"name":"Scene",
			"nodes":[
				0,
				1,
				2,
				3,
				4,
				5
			]
		}
	],
	"nodes":[
		{
			"extras":{
				"bloom":"bloom"
			},
			"mesh":0,
			"name":"buffer",
			"scale":[
				3,
				3,
				3
			],
			"translation":[
				-0.004069894552230835,
				-1.5480549335479736,
				0.6466299295425415
			]
		},
		{
			"name":"read_line_Lattice",
			"scale":[
				2.340883255004883,
				1.7190604209899902,
				2.340883255004883
			],
			"translation":[
				0,
				0.002598881721496582,
				0
			]
		},
		{
			"mesh":1,
			"name":"read_line",
			"rotation":[
				0,
				0,
				0.7071067690849304,
				0.7071068286895752
			],
			"scale":[
				0.24359697103500366,
				0.24359697103500366,
				0.24359697103500366
			],
			"translation":[
				-0.004069894552230835,
				0.6188262701034546,
				-1.3501787185668945
			]
		},
		{
			"mesh":2,
			"name":"fd1",
			"rotation":[
				0.2684049904346466,
				0.054098643362522125,
				-0.180658221244812,
				0.9446665644645691
			],
			"scale":[
				0.21811500191688538,
				0.21811503171920776,
				0.218114972114563
			],
			"translation":[
				0.572984516620636,
				1.021087884902954,
				0.515113353729248
			]
		},
		{
			"mesh":3,
			"name":"fd2",
			"rotation":[
				0.48709002137184143,
				0.0699642226099968,
				0.05099082365632057,
				0.8690503239631653
			],
			"scale":[
				0.21811498701572418,
				0.21811500191688538,
				0.218114972114563
			],
			"translation":[
				-0.5689145922660828,
				0.7154531478881836,
				0.16963863372802734
			]
		},
		{
			"mesh":4,
			"name":"fd3",
			"rotation":[
				0.8077126741409302,
				0.1120016872882843,
				0.09752970933914185,
				0.5705644488334656
			],
			"scale":[
				0.23497234284877777,
				0.23497231304645538,
				0.23497235774993896
			],
			"translation":[
				0.08802618831396103,
				0.28216245770454407,
				0.7793440818786621
			]
		}
	],
	"materials":[
		{
			"alphaMode":"BLEND",
			"doubleSided":true,
			"emissiveFactor":[
				1,
				1,
				1
			],
			"emissiveTexture":{
				"index":0
			},
			"extensions":{
				"KHR_materials_emissive_strength":{
					"emissiveStrength":2
				}
			},
			"name":"buffer",
			"pbrMetallicRoughness":{
				"baseColorTexture":{
					"index":1
				},
				"roughnessFactor":0.5
			}
		},
		{
			"doubleSided":true,
			"emissiveFactor":[
				1,
				0.6793982353328191,
				0
			],
			"extensions":{
				"KHR_materials_emissive_strength":{
					"emissiveStrength":2.000337600708008
				}
			},
			"name":"read_line",
			"pbrMetallicRoughness":{
				"baseColorFactor":[
					1,
					0.6795129179954529,
					0,
					1
				],
				"metallicFactor":0.3840909004211426,
				"roughnessFactor":0.0681818351149559
			}
		},
		{
			"doubleSided":true,
			"name":"fd_black",
			"pbrMetallicRoughness":{
				"baseColorFactor":[
					0,
					0,
					0,
					1
				],
				"metallicFactor":0,
				"roughnessFactor":0.5
			}
		},
		{
			"doubleSided":true,
			"emissiveFactor":[
				1,
				1,
				1
			],
			"name":"fd_white",
			"pbrMetallicRoughness":{
				"baseColorFactor":[
					0.800000011920929,
					0.800000011920929,
					0.800000011920929,
					1
				],
				"metallicFactor":0,
				"roughnessFactor":0.5
			}
		}
	],
	"meshes":[
		{
			"name":"Circle",
			"primitives":[
				{
					"attributes":{
						"POSITION":0,
						"NORMAL":1,
						"TEXCOORD_0":2
					},
					"indices":3,
					"material":0
				}
			]
		},
		{
			"name":"Torus",
			"primitives":[
				{
					"attributes":{
						"POSITION":4,
						"NORMAL":5,
						"TEXCOORD_0":6
					},
					"indices":7,
					"material":1
				}
			]
		},
		{
			"name":"Cube.001",
			"primitives":[
				{
					"attributes":{
						"POSITION":8,
						"NORMAL":9,
						"TEXCOORD_0":10
					},
					"indices":11,
					"material":2
				}
			]
		},
		{
			"name":"Cube.002",
			"primitives":[
				{
					"attributes":{
						"POSITION":12,
						"NORMAL":13,
						"TEXCOORD_0":14
					},
					"indices":11,
					"material":2
				}
			]
		},
		{
			"name":"Cube.003",
			"primitives":[
				{
					"attributes":{
						"POSITION":15,
						"NORMAL":16,
						"TEXCOORD_0":17
					},
					"indices":11,
					"material":3
				}
			]
		}
	],
	"textures":[
		{
			"sampler":0,
			"source":0
		},
		{
			"sampler":0,
			"source":1
		}
	],
	"images":[
		{
			"mimeType":"image/png",
			"name":"buffer_emission",
			"uri":"buffer_emission.png"
		},
		{
			"mimeType":"image/png",
			"name":"buffer_basecolor-buffer_alpha",
			"uri":"buffer_basecolor-buffer_alpha.png"
		}
	],
	"accessors":[
		{
			"bufferView":0,
			"componentType":5126,
			"count":640,
			"max":[
				0.8986834287643433,
				1.7906163930892944,
				0.8782123923301697
			],
			"min":[
				-0.8975833058357239,
				-0.18461966514587402,
				-0.9031335711479187
			],
			"type":"VEC3"
		},
		{
			"bufferView":1,
			"componentType":5126,
			"count":640,
			"type":"VEC3"
		},
		{
			"bufferView":2,
			"componentType":5126,
			"count":640,
			"type":"VEC2"
		},
		{
			"bufferView":3,
			"componentType":5123,
			"count":960,
			"type":"SCALAR"
		},
		{
			"bufferView":4,
			"componentType":5126,
			"count":637,
			"max":[
				1.25,
				0.25,
				1.25
			],
			"min":[
				-1.25,
				-0.25,
				-1.25
			],
			"type":"VEC3"
		},
		{
			"bufferView":5,
			"componentType":5126,
			"count":637,
			"type":"VEC3"
		},
		{
			"bufferView":6,
			"componentType":5126,
			"count":637,
			"type":"VEC2"
		},
		{
			"bufferView":7,
			"componentType":5123,
			"count":3456,
			"type":"SCALAR"
		},
		{
			"bufferView":8,
			"componentType":5126,
			"count":24,
			"max":[
				1,
				1,
				1
			],
			"min":[
				-1,
				-1,
				-1
			],
			"type":"VEC3"
		},
		{
			"bufferView":9,
			"componentType":5126,
			"count":24,
			"type":"VEC3"
		},
		{
			"bufferView":10,
			"componentType":5126,
			"count":24,
			"type":"VEC2"
		},
		{
			"bufferView":11,
			"componentType":5123,
			"count":36,
			"type":"SCALAR"
		},
		{
			"bufferView":12,
			"componentType":5126,
			"count":24,
			"max":[
				1,
				1,
				1
			],
			"min":[
				-1,
				-1,
				-1
			],
			"type":"VEC3"
		},
		{
			"bufferView":13,
			"componentType":5126,
			"count":24,
			"type":"VEC3"
		},
		{
			"bufferView":14,
			"componentType":5126,
			"count":24,
			"type":"VEC2"
		},
		{
			"bufferView":15,
			"componentType":5126,
			"count":24,
			"max":[
				1,
				1,
				1
			],
			"min":[
				-1,
				-1,
				-1
			],
			"type":"VEC3"
		},
		{
			"bufferView":16,
			"componentType":5126,
			"count":24,
			"type":"VEC3"
		},
		{
			"bufferView":17,
			"componentType":5126,
			"count":24,
			"type":"VEC2"
		}
	],
	"bufferViews":[
		{
			"buffer":0,
			"byteLength":7680,
			"byteOffset":0,
			"target":34962
		},
		{
			"buffer":0,
			"byteLength":7680,
			"byteOffset":7680,
			"target":34962
		},
		{
			"buffer":0,
			"byteLength":5120,
			"byteOffset":15360,
			"target":34962
		},
		{
			"buffer":0,
			"byteLength":1920,
			"byteOffset":20480,
			"target":34963
		},
		{
			"buffer":0,
			"byteLength":7644,
			"byteOffset":22400,
			"target":34962
		},
		{
			"buffer":0,
			"byteLength":7644,
			"byteOffset":30044,
			"target":34962
		},
		{
			"buffer":0,
			"byteLength":5096,
			"byteOffset":37688,
			"target":34962
		},
		{
			"buffer":0,
			"byteLength":6912,
			"byteOffset":42784,
			"target":34963
		},
		{
			"buffer":0,
			"byteLength":288,
			"byteOffset":49696,
			"target":34962
		},
		{
			"buffer":0,
			"byteLength":288,
			"byteOffset":49984,
			"target":34962
		},
		{
			"buffer":0,
			"byteLength":192,
			"byteOffset":50272,
			"target":34962
		},
		{
			"buffer":0,
			"byteLength":72,
			"byteOffset":50464,
			"target":34963
		},
		{
			"buffer":0,
			"byteLength":288,
			"byteOffset":50536,
			"target":34962
		},
		{
			"buffer":0,
			"byteLength":288,
			"byteOffset":50824,
			"target":34962
		},
		{
			"buffer":0,
			"byteLength":192,
			"byteOffset":51112,
			"target":34962
		},
		{
			"buffer":0,
			"byteLength":288,
			"byteOffset":51304,
			"target":34962
		},
		{
			"buffer":0,
			"byteLength":288,
			"byteOffset":51592,
			"target":34962
		},
		{
			"buffer":0,
			"byteLength":192,
			"byteOffset":51880,
			"target":34962
		}
	],
	"samplers":[
		{
			"magFilter":9729,
			"minFilter":9987
		}
	],
	"buffers":[
		{
			"byteLength":52072,
			"uri":"gnl_plant.bin"
		}
	]
}
